<svg xmlns="http://www.w3.org/2000/svg" width="256" height="256"><path fill="#1976D2" fill-opacity=".016" fill-rule="evenodd" d="M0 128.004v128.004l128.25-.254 128.25-.254.254-127.75L257.008 0H0zm.485.496c0 70.4.119 99.053.265 63.672s.146-92.98 0-128S.485 58.1.485 128.5"/><path fill="#1976D2" fill-opacity=".075" fill-rule="evenodd" d="M125.2 25.2c-1.474 1.474-1.576 5.45-.161 6.324.583.361-2.813 4.673-7.75 9.84-4.834 5.059-9.914 11.326-11.289 13.926-1.797 3.399-2.922 4.543-4 4.066-6.698-2.96-13.587-4.536-22.082-5.054C67.982 53.575 68.5 52.919 68.5 68.761v11.262l-3.407-.262c-3.012-.231-3.51.086-4.302 2.739-1.336 4.471-1.258 19.564.119 23 2.099 5.239 6.296 10.509 10.242 12.863l3.823 2.279-2.987 2.209c-3.44 2.543-3.81 4.639-1.078 6.101 1.51.808 3.589.182 9.914-2.984 17.605-8.811 42.158-11.994 65.451-8.483 13.074 1.971 19.626 3.907 29.488 8.712 6.748 3.289 8.535 3.8 9.75 2.792 2.347-1.947 1.744-4.724-1.432-6.6l-2.918-1.724 3.787-2.744c9.571-6.933 13.334-20.076 9.712-33.921-1.019-3.891-1.515-4.479-3.67-4.343-2.479.155-2.49.117-2.155-7.477.185-4.198.032-10.072-.34-13.052l-.677-5.419-10.16.594c-8.825.516-15.729 2.063-22.742 5.097-1.182.512-2.557-.895-5.447-5.578-2.126-3.445-7.126-9.576-11.109-13.625-6.505-6.612-7.137-7.596-6.2-9.653 2.106-4.621-3.433-8.873-6.962-5.344m-3.318 32.05c-2.856 2.337-6.067 5.43-7.136 6.872l-1.945 2.621 3.043 4.201c2.811 3.88 5.083 9.506 6.586 16.306.927 4.191-.712 3.272-2.68-1.504-.963-2.335-3.536-6.271-5.719-8.746-3.291-3.732-4.144-4.244-4.996-3-3.48 5.079-4.031 19.425-1.075 27.989 1.042 3.019 1.725 5.659 1.519 5.866-.929.928-6.762-10.013-8.659-16.242-1.706-5.601-1.989-8.431-1.514-15.164.689-9.752 1.018-9.449-10.279-9.449-8.844 0-8.421-.444-9.546 10.042l-.585 5.458 5.302 3c6.546 3.704 11.432 10.569 12.296 17.277.335 2.598 1.046 5.522 1.581 6.498.856 1.562.64 1.695-1.801 1.107-8.332-2.007-17.717-8.87-21.907-16.019-1.406-2.4-3.168-4.363-3.915-4.363-1.563 0-3.438 5.923-3.446 10.884-.01 5.629 2.22 11.269 6.042 15.287l3.622 3.808 5.244-2.53c7.448-3.593 22.189-7.349 31.778-8.096l8.192-.639-2.411-3.161c-2.306-3.023-4.442-7.462-5.921-12.303-.962-3.153 1.219-2.923 6.148.647l3.999 2.898 1.691-5.364c.93-2.949 2.111-5.623 2.625-5.94s1.713 2.066 2.665 5.297l1.731 5.874 4.805-2.987c2.643-1.643 5.076-2.716 5.407-2.385 1.083 1.083-2.59 10.086-5.688 13.94l-3.029 3.77h4.416c7.672 0 21.552 2.92 31.386 6.603l9.494 3.556 2.496-2.329c5.734-5.351 8.177-16.768 5.241-24.49l-1.061-2.79-2.825 4.475c-4.983 7.895-13.708 14.361-22.253 16.493-2.69.671-2.699.656-2.364-4.271.66-9.705 7.012-18.891 15.805-22.856l4.001-1.804-.588-5.626c-.991-9.476-.629-9.193-11.215-8.803-5.102.188-9.492.567-9.757.842s-.07 2.975.433 6c1.61 9.704-2.5 25.273-8.581 32.5-1.652 1.963-1.67 1.954-1.026-.5 3.185-12.124 3.635-15.005 3.127-20-.307-3.025-1.19-7.3-1.961-9.5l-1.402-4-3.67 3.983c-2.019 2.19-4.763 6.24-6.1 9-1.944 4.016-2.435 4.518-2.46 2.517-.052-4.169 1.754-9.279 5.444-15.407l3.508-5.825-2.747-3.178C137.586 59.355 129.812 53 128.292 53c-.67 0-3.554 1.913-6.41 4.25M83.038 95.075c2.077 4.07 7.632 10.143 10.859 11.87 1.797.962 1.84.808.767-2.713-1.266-4.15-8.092-11.588-11.439-12.463l-2.162-.565zm87.462-2.198c-4.652 2.899-8.28 7.247-9.917 11.887-.822 2.33-1.129 4.236-.682 4.236C163.06 109 176 95.198 176 91.829c0-1.375-2.323-.932-5.5 1.048M11.098 166.546C5.544 177.959 1 187.455 1 187.648s.832.352 1.848.352c1.189 0 2.492-1.427 3.652-4l1.804-4h20.392l1.804 4c1.713 3.798 2.029 4 6.259 4 3.174 0 4.306-.359 3.937-1.25-2.701-6.513-18.035-39.447-18.672-40.102-.456-.469-5.373 8.485-10.926 19.898m133.773-17.981c-13.357 4.113-18.197 22.16-8.81 32.851 4.189 4.772 9.141 6.834 16.411 6.834 6.646 0 11.159-1.73 15.77-6.044 2.581-2.414 2.644-2.674 1.078-4.405-1.6-1.768-1.773-1.707-4.504 1.606-4.751 5.763-13.327 7.109-19.506 3.061-5.778-3.786-7.934-15.294-4.346-23.197 4.443-9.788 17.242-11.181 23.983-2.612 1.981 2.519 2.234 2.588 3.788 1.034s1.471-1.869-1.244-4.703c-2.96-3.089-10.671-6.049-15.423-5.92-1.412.038-4.651.711-7.197 1.495m86.121-.238c-4.616 1.544-6.266 2.666-8.302 5.646-4.458 6.522-.421 12.455 11.601 17.052C245 175.12 247 176.465 247 179.574c0 1.94-.807 2.865-3.468 3.977-6.688 2.795-14.933 1.177-18.268-3.585-1.546-2.207-4.264-2.646-4.264-.689 0 .703.659 2.219 1.465 3.37 5.19 7.41 24.524 6.917 29.902-.761 4.546-6.49-.075-12.987-12.024-16.905-9.282-3.044-12.343-4.934-12.343-7.624 0-1.22 1.233-3.185 2.75-4.383 3.831-3.024 11.206-2.349 15.101 1.384 3.1 2.97 5.149 3.405 5.149 1.094 0-2.301-4.77-6.294-8.886-7.437-4.48-1.244-6.65-1.184-11.122.312M43 168.016c0 18.633.13 20.106 1.75 19.796 1.535-.294 1.817-2.05 2.293-14.324.299-7.693.636-13.536.75-12.983s2.765 4.378 5.892 8.5 6.893 9.671 8.368 12.33l2.683 4.835 8.605-14.773 8.605-14.773.277 15.438.277 15.438 3.75.31 3.75.311v-40.242l-3.689.311c-3.58.301-3.906.678-10.903 12.617-3.968 6.769-7.447 12.394-7.733 12.5-1.108.412-13.706-17.094-14.998-20.843-1.266-3.673-1.672-3.987-5.522-4.271L43 147.885zm51.544-17.266c.975 1.512 4.402 6.468 7.615 11.011l5.841 8.262V188h8v-17.57l7.5-10.765c4.125-5.922 7.5-10.968 7.5-11.216s-.858-.449-1.907-.449c-1.272 0-3.825 2.825-7.68 8.5-3.175 4.675-6.061 8.5-6.412 8.5s-3.264-3.825-6.472-8.5l-5.833-8.5H92.77zm89.327-.744c-8.131 4.297-11.941 12.552-10.048 21.774 1.287 6.269 3.932 10.288 8.72 13.247 4.362 2.695 13.763 3.687 18.897 1.993 4.782-1.578 10.479-6.582 12.209-10.722 2.933-7.021.738-19.041-4.294-23.51-5.598-4.97-18.647-6.395-25.484-2.782m5.629 1.897c-7.553 3.317-10.789 15.46-6.586 24.714 1.028 2.265 2.918 4.853 4.2 5.75 2.892 2.026 10.048 2.118 13.801.177 8.404-4.346 8.806-23.75.602-29.125-2.944-1.929-9.262-2.726-12.017-1.516M15.037 166.204c-1.8 4.013-3.493 7.859-3.762 8.546-.366.937 1.527 1.25 7.561 1.25h8.05l-3.517-7.75c-1.934-4.262-3.864-8.108-4.289-8.546s-2.244 2.488-4.043 6.5m176.941-.681-2.158 2.297 2.171 2.171c2.112 2.112 2.232 2.121 4.34.351 1.193-1.001 2.309-1.89 2.48-1.975s-.812-1.277-2.183-2.648l-2.492-2.492zm-50.421 32.7c-2.384 3.402-1.852 4.403.943 1.777 1.375-1.292 2.5-2.72 2.5-3.174 0-1.581-1.897-.811-3.443 1.397M85 197.889c0 .489.885 1.952 1.967 3.25 1.571 1.887 1.973 2.026 2 .693.054-2.705-1.079-4.832-2.574-4.832-.766 0-1.393.4-1.393.889m-82.826 4.425C-.475 205.135-.852 211 1.617 211c1.151 0 1.458-.606 1.065-2.107-.675-2.582.844-6.893 2.429-6.893 2.229 0-.942 14.688-3.784 17.531-1.193 1.192-1.31 1.886-.463 2.733 1.814 1.814 3.298-.461 5.182-7.949l1.695-6.733 1.551 6.797c2.383 10.446 2.966 10.343 5.859-1.042 1.095-4.31 2.629-8.826 3.409-10.035 1.033-1.601 1.108-2.389.277-2.903-1.688-1.043-3.337 1.801-4.819 8.313l-1.317 5.788-1.364-5.915c-2.081-9.014-4.822-10.89-9.163-6.271m173.237.186c-.41 1.634-1.37 2.54-2.769 2.616-1.691.092-1.773.212-.392.573 2.784.728 2.144 3.109-.69 2.567-1.712-.327-3.221.314-5.057 2.15-2.145 2.145-2.562 3.381-2.31 6.855l.307 4.239 5.996.168c3.298.092 6.521-.267 7.161-.799.757-.628 1.392-.599 1.813.082.871 1.41 6.841 1.338 8.279-.1.791-.791.726.454-.21 4-1.258 4.769-1.227 5.149.409 5.149 1.272 0 2.02-1.192 2.666-4.25.849-4.017 1.072-4.233 4.062-3.933 3.611.362 8.782-1.963 9.703-4.362 1.31-3.413.514-3.835-1.803-.955l-2.414 3 1.105-4.173c1.472-5.559.035-7.382-5.523-7.01-3.857.258-4.112.482-5.361 4.715-1.378 4.667-3.549 6.968-6.574 6.968-2.814 0-2.064-2.291 1.48-4.521 4.23-2.662 4.528-6.827.522-7.29-3.292-.38-6.634 2.675-7.463 6.82-.691 3.458-3.348 6.279-3.348 3.556 0-3.602 2.334-11.128 3.819-12.315.98-.783 1.112-1.25.353-1.25-.791 0-.993-.865-.583-2.5.473-1.881.234-2.5-.962-2.5-.874 0-1.871 1.125-2.216 2.5m38.044-.045c-2.812 2.811-3.453 8.545-.955 8.545 1.037 0 1.5-1.042 1.5-3.378 0-1.857.675-3.937 1.5-4.622 1.264-1.049 1.5-.861 1.5 1.194 0 1.341-.476 5.011-1.057 8.156-1.952 10.558.759 12.549 6.478 4.758 6.004-8.18 8.655-17.108 5.079-17.108-.986 0-1.5.986-1.5 2.878 0 3.248-1.933 8.175-4.951 12.622-1.795 2.645-2.037 2.75-2.042.886-.004-1.162.439-4.462.983-7.334 1.608-8.478-1.509-11.624-6.535-6.597m-189.898.768c-2.134 3.046-1.959 4.451.3 2.407 1.671-1.513 1.985-1.526 3.142-.131 1.702 2.051 2.249 1.338 1.441-1.881-.804-3.203-2.803-3.365-4.883-.395m58.193.229c-2.347 3.251-2.205 3.98.418 2.143 1.959-1.372 2.298-1.354 3.522.193 1.212 1.531 1.326 1.396 1.083-1.279-.344-3.766-2.708-4.264-5.023-1.057m158.865.013c-2.2 3.358-2.029 4.22.401 2.021 1.953-1.768 2.061-1.765 3.468.095 1.26 1.665 1.457 1.698 1.484.251.096-5.03-2.776-6.3-5.353-2.367m-103.615.42c0 1.045.646 2.149 1.436 2.452 1.486.57 7.077-3.157 6.141-4.094-.291-.29-1.251.072-2.134.804-1.267 1.052-2.01 1.08-3.524.134-1.639-1.023-1.919-.921-1.919.704m-67 .993c0 1.032-.562 2.347-1.25 2.921-.758.633-1.25 3.532-1.25 7.372 0 5.847.176 6.354 2.305 6.656 1.268.179 2.915-.18 3.661-.799.791-.656 1.594-.741 1.926-.203.313.507 3.951.962 8.084 1.01l7.515.087 1.108-4.399c1.177-4.677 4.221-8.432 5.352-6.602.358.579.18 2.746-.395 4.816-1.39 5.007-1.325 6.263.325 6.263.813 0 1.872-1.95 2.574-4.737 2.313-9.183 5.569-10.089 4.545-1.263-.694 5.98-.688 6 1.917 6 1.863 0 3.167-.911 4.546-3.179 1.063-1.749 1.654-3.632 1.312-4.185s-1.3.428-2.13 2.179c-2.462 5.2-4.168 4.007-2.09-1.461 1.551-4.079.431-7.354-2.515-7.354-1.332 0-2.714.472-3.07 1.049-.45.728-1.044.72-1.943-.026-.712-.591-3.034-.944-5.161-.783-3.647.275-3.951.557-5.366 4.982-.825 2.579-2.12 5.272-2.878 5.984-1.162 1.091-1.276.667-.729-2.706 1.339-8.261 1.472-7.9-3.048-8.243-3.508-.265-4.481.1-6.25 2.349-1.152 1.465-2.095 3.433-2.095 4.374s-.823 2.455-1.829 3.365c-3.373 3.053-3.917 1.88-2.122-4.581.57-2.054 1.355-3.688 1.744-3.631 1.921.283 2.335-.273 1.211-1.628-.682-.822-1.004-2.397-.716-3.5.39-1.489.034-2.005-1.382-2.005-1.198 0-1.906.697-1.906 1.878m161.688-1.232c-1.374 1.374-.662 3.496 1.062 3.164.963-.186 1.75-.969 1.75-1.74 0-1.579-1.764-2.472-2.812-1.424m17.293 2.604c-.668 1.787-1.386 4.516-1.596 6.063-.579 4.263-2.172 6.595-4.987 7.302-4.374 1.098-4.762-1.045-.668-3.689 6.169-3.985 5.271-9.147-1.304-7.497-1.902.478-3.195 2.062-4.985 6.108-2.387 5.398-5.286 7.694-4.057 3.213 1.534-5.592 1.84-9.75.719-9.75-1.369 0-2.858 3.614-3.726 9.042-.509 3.185-.296 4.052 1.13 4.599.967.371 2.651.117 3.743-.565 1.424-.89 2.292-.934 3.068-.158 1.396 1.396 5.246 1.386 7.875-.021 1.535-.822 2.249-.799 2.797.087 1.897 3.069 9.985-2.559 8.798-6.121-.278-.833-.988-.236-1.868 1.573-.781 1.604-2.05 3.122-2.82 3.373-2.124.694-.718-7.865 1.584-9.639 1.286-.991 1.452-1.536.568-1.868-.776-.29-1.019-1.383-.642-2.885.946-3.768-2.177-3.051-3.629.833m-229.846 4.106c-2.647 2.818-3.8 8.138-2.185 10.084.872 1.05 3.149 1.392 8.342 1.252l7.142-.192 1.34-4.745c1.255-4.447 4.456-7.81 5.628-5.914.288.466.057 2.533-.512 4.594s-.791 4.381-.493 5.156c.63 1.642 4.187 1.892 5.133.36.443-.717 1.092-.68 2.053.118.773.642 2.533.951 3.911.687 3.306-.631 3.171-.346-.994 2.111-3.764 2.221-4.721 5.727-1.864 6.824 2.197.843 4.539-.72 6.394-4.266.841-1.609 2.979-4.353 4.75-6.098s3.22-3.883 3.22-4.75c0-2.359-.771-1.92-2.5 1.423-2.421 4.681-3.459 3.53-1.955-2.17.75-2.843 1.179-5.468.953-5.834s-2.166-.734-4.311-.818c-4.543-.178-6.464 1.487-8.39 7.272-1.559 4.682-4.312 6.354-3.126 1.898.417-1.566.774-4.198.793-5.848.035-2.933-.074-3-4.899-3H32.63l-1.244 4.879c-1.251 4.905-2.846 7.494-3.942 6.398-.324-.324-.109-2.319.478-4.433 1.748-6.296 1.508-6.902-2.802-7.074-2.858-.114-4.434.435-5.985 2.086m103.305.394c-.984 1.512-2.425 3.222-3.201 3.799-.824.613-1.271 2.277-1.075 4 .297 2.609.766 2.987 4.044 3.259 2.039.169 4.655-.2 5.814-.82 1.392-.745 2.508-.794 3.292-.143 1.482 1.228 10.78 1.208 12.347-.027.717-.566 1.408-.515 1.809.133.356.577 2.218 1.049 4.137 1.049 3.718 0 8.393-3.82 8.393-6.858 0-.999-1.007-.361-2.779 1.762-3.355 4.019-6.56 3.968-7.033-.113-.337-2.913 1.289-6.791 2.847-6.791.531 0 .965.713.965 1.583 0 .871.563 1.396 1.25 1.167 2.259-.753 1.427-4.225-1.098-4.582-3.126-.443-6.561 2.916-8.045 7.868-1.234 4.121-3.832 5.756-2.723 1.714.339-1.238.885-3.847 1.212-5.799.594-3.539.585-3.55-3.25-3.666-4.469-.135-6.943 1.677-9.167 6.715l-1.546 3.5-.893-5.25c-1.01-5.94-2.579-6.68-5.3-2.5m-101.981 2.694c-1.398 3.345-1.108 6.556.591 6.556 1.537 0 3.95-4.412 3.95-7.223 0-3.974-2.772-3.567-4.541.667m28.987-1.002c-1.788 2.729-1.616 6.681.318 7.318.721.237 1.93-1.177 2.812-3.289 2.458-5.883.086-8.937-3.13-4.029m30 0c-1.788 2.729-1.616 6.681.318 7.318.721.237 1.93-1.177 2.812-3.289 2.458-5.883.086-8.937-3.13-4.029m55.013 1.002c-1.398 3.345-1.108 6.556.591 6.556 1.537 0 3.95-4.412 3.95-7.223 0-3.974-2.772-3.567-4.541.667m34.697-2.132c-1.795 2.163-2.529 7.339-1.161 8.185 1.799 1.112 3.894-1.566 4.218-5.388.309-3.649-1.203-5.031-3.057-2.797m14.122-.062c-.532.688-1.272 2.099-1.643 3.136-.629 1.753-.517 1.78 1.594.38 2.334-1.547 3.662-4.766 1.967-4.766-.523 0-1.386.563-1.918 1.25m11.279.973c-1.59 2.269-2.163 7.789-.807 7.762 3.708-.076 7.02-9.985 3.338-9.985-.536 0-1.675 1-2.531 2.223m45.721-.973c-.532.688-1.272 2.099-1.643 3.136-.629 1.753-.517 1.78 1.594.38 2.334-1.547 3.662-4.766 1.967-4.766-.523 0-1.386.563-1.918 1.25m-118.593 4.284c-2.151 4.511-2.13 4.668.565 4.286 1.807-.257 2.311-1.058 2.56-4.07.391-4.716-.935-4.807-3.125-.216m59.761 9.553c-1.03 1.668 1.287 3.58 2.667 2.2 1.154-1.154.432-3.287-1.113-3.287-.485 0-1.184.489-1.554 1.087M238.5 225c-1.077 1.742.519 3.229 2.078 1.935.77-.639 1.153-1.561.852-2.048-.73-1.181-2.165-1.125-2.93.113m-190.3 1.2c-1.446 1.446-1.56 2.8-.235 2.8.53 0 1.446-.9 2.035-2 1.179-2.203.088-2.688-1.8-.8"/><path fill="#1976D2" fill-opacity=".216" fill-rule="evenodd" d="M125.2 25.2c-1.515 1.515-1.552 5.048-.069 6.531.842.842-.438 2.584-4.999 6.807-3.372 3.122-8.426 9.115-11.231 13.319s-5.2 7.75-5.321 7.88c-.122.131-2.89-.702-6.151-1.85s-10.337-2.569-15.724-3.157c-13.091-1.427-12.997-1.526-13.051 13.708L68.613 80h-3.287c-4.177 0-4.831 2.037-4.813 15 .01 7.823.397 10.223 2.191 13.595 2.029 3.815 6.76 8.715 10.986 11.38 1.267.799 1.439 1.297.573 1.662-.68.286-2.24 1.334-3.467 2.327-1.91 1.547-2.038 2.039-.891 3.421 1.954 2.355 3.888 2.025 11.344-1.934 3.676-1.952 11.087-4.739 16.468-6.193 9.081-2.453 11.254-2.643 30.283-2.643 18.98 0 21.218.194 30.182 2.618 5.325 1.439 12.887 4.226 16.805 6.192 7.868 3.949 10.753 4.417 11.718 1.902.438-1.143-.377-2.525-2.573-4.358l-3.215-2.684 2.717-1.781c9.881-6.474 13.712-18.174 11.054-33.754-.732-4.288-1.072-4.75-3.499-4.751l-2.689-.001-.033-12.056c-.026-9.452-.35-12.269-1.5-13.046-1.679-1.132-15.086-.326-21.967 1.322-2.475.592-6.15 1.901-8.167 2.908l-3.667 1.83-3.151-5.583c-1.733-3.071-6.893-9.473-11.467-14.228-7.703-8.006-8.216-8.796-6.946-10.691 2.611-3.896-3.086-8.57-6.402-5.254m-.832 29.702c-2.127 1.571-5.662 4.726-7.854 7.011-3.965 4.133-3.977 4.169-2.263 6.871 3.374 5.319 6.622 12.776 7.279 16.716l.667 4-2.576-5.025c-1.416-2.763-4.324-6.732-6.462-8.82l-3.886-3.794-1.759 4.319c-2.254 5.533-2.34 18.469-.168 25.273.869 2.725 1.413 5.121 1.209 5.325-.204.205-1.995-2.924-3.979-6.953q-6.81-13.828-4.785-25.554c.708-4.097.679-5.969-.099-6.455-1.98-1.235-10.574-2.012-14.649-1.323-3.542.598-4.111 1.09-5.014 4.341-.56 2.016-1.02 5.506-1.023 7.755-.005 3.371.424 4.286 2.44 5.205 3.87 1.763 10.531 8.236 12.491 12.138.986 1.962 2.081 5.368 2.433 7.568l.641 4-2.118-4c-2.641-4.987-6.529-9.227-10.236-11.163-3.621-1.891-4.192-1.273-2.267 2.45 2.455 4.748 6.724 9.329 11.536 12.381 5.155 3.269 3.347 3.735-3.352.864-5.613-2.406-14.083-10.15-16.689-15.257C72.826 90.699 71.338 89 70.578 89 68.582 89 67 94.39 67 101.189c0 6.612 2.116 11.697 6.667 16.016l2.849 2.706 8.492-3.385c9.267-3.694 19.723-6.115 30.899-7.154l7.184-.668-2.602-2.715c-2.508-2.618-7.816-13.995-6.939-14.872.236-.236 2.701.983 5.478 2.709 3.407 2.119 5.174 2.738 5.434 1.906.212-.677.903-2.913 1.535-4.968 1.687-5.487 2.638-5.388 4.555.478.945 2.892 1.828 5.392 1.963 5.555s2.35-1.123 4.923-2.86 4.895-2.937 5.162-2.67c.833.833-3.327 10.687-5.982 14.167l-2.529 3.316 7.205.701c12.676 1.233 26.498 4.805 34.394 8.888 2.681 1.386 3.249 1.393 5.148.063 1.173-.822 3.378-3.611 4.899-6.198 2.29-3.895 2.752-5.822 2.689-11.204-.042-3.575-.614-7.792-1.271-9.372l-1.196-2.871-3.883 6.008c-3.904 6.04-9.886 11.005-16.678 13.843-4.631 1.935-6.852 1.211-2.776-.905 4.038-2.096 11.881-10.833 13.25-14.759 1.007-2.889.943-3.021-1.152-2.387-6.319 1.912-12.322 7.681-14.511 13.943l-1.049 3-.057-3c-.073-3.84 3.247-11.187 6.708-14.843 1.48-1.564 4.887-3.964 7.571-5.333l4.881-2.49-.523-6.509c-.287-3.58-1.042-7.029-1.676-7.663-1.267-1.267-13.073-1.583-17.062-.456-2.477.7-2.5.809-2.5 12 0 10.999-.099 11.501-3.77 19.19-2.074 4.343-3.949 7.718-4.168 7.499s.24-2.858 1.02-5.864c.78-3.007 1.418-7.987 1.418-11.067C151 83.221 148.534 73 147.148 73c-1.492 0-6.086 5.566-9.085 11.007-1.665 3.021-3.035 4.776-3.045 3.9-.034-3.001 3.979-13.215 6.481-16.495 1.376-1.803 2.501-3.757 2.501-4.342 0-1.64-6.284-8.217-11.277-11.802l-4.486-3.222zM11.541 166.49c-5.421 11.29-9.524 20.86-9.117 21.267.783.783 1.998-.662 4.779-5.682L8.907 179h19.694l2.187 4.5c1.974 4.064 2.526 4.5 5.699 4.5 1.932 0 3.513-.424 3.513-.943 0-.89-15.665-35.85-17.666-39.425-.728-1.301-3.115 2.871-10.793 18.858m31.688 1.177c.199 14.417.598 19.777 1.495 20.075.921.307 1.291-3.377 1.5-14.917L46.5 157.5l2.663 4.529c1.464 2.491 4.671 6.991 7.127 10s5.354 7.229 6.44 9.378l1.975 3.907 7.397-12.748c11.581-19.955 10.826-19.899 10.865-.816L83 188h7v-40h-3.364c-3.266 0-3.592.393-11.182 13.485-4.3 7.416-7.922 13.379-8.049 13.25-2.91-2.964-13.631-18.768-15.016-22.136-1.773-4.308-2.122-4.592-5.66-4.595L42.958 148zm51.038-18.414c.291.759 3.388 5.4 6.881 10.313l6.352 8.934.5 9.5.5 9.5h7l.29-8.853.291-8.852 7.535-10.898c5.83-8.432 7.121-10.893 5.709-10.881-1.175.01-3.962 3.202-7.825 8.964-3.3 4.922-6.225 8.949-6.5 8.949s-3.214-3.921-6.531-8.714c-5.874-8.489-6.143-8.723-10.381-9.029-3.374-.243-4.232-.004-3.821 1.067m48.763.33C135.564 152.822 132 158.773 132 168c0 12.125 6.752 19.138 19.096 19.836 5.533.312 7.682-.034 11.412-1.84 5.336-2.583 8.44-6.448 6.63-8.258-.878-.878-2.033-.258-4.775 2.564-4.158 4.282-6.69 5.147-12.985 4.437C143.453 183.846 139 177.824 139 168c0-6.928 1.54-10.593 6.041-14.381 5.674-4.774 18.532-2.691 20.437 3.312.78 2.457 1.82 2.619 3.538.55 1.033-1.245.92-1.901-.628-3.641-4.809-5.406-17.714-7.572-25.358-4.257m43.761-.595c-4.614 1.391-8.942 5.134-10.886 9.413-2.069 4.557-2.478 12.952-.841 17.284 1.334 3.532 5.52 8.007 9.436 10.088 4.568 2.427 14.987 2.112 20.249-.613 14.033-7.265 13.299-28.691-1.208-35.28-4.207-1.911-11.992-2.326-16.75-.892m41.209.764c-4.468 2.232-7.462 7.904-6.084 11.527 1.545 4.065 4.929 6.518 13.523 9.803 9.903 3.786 12.561 5.434 12.561 7.786 0 3.158-3.663 5.439-9.51 5.924-6.067.503-10.799-.967-12.938-4.021-.752-1.074-2.127-1.8-3.055-1.612-1.492.301-1.425.675.575 3.212 4.659 5.91 14.976 7.432 22.908 3.379 6.206-3.171 8.605-6.718 7.396-10.933-1.195-4.169-5.109-6.804-15.456-10.406-9.036-3.146-11.86-5.786-9.968-9.321 1.532-2.863 4.242-4.09 9.032-4.09 4.255 0 10.016 2.315 10.016 4.026 0 .536.916.974 2.035.974 1.743 0 1.878-.295.936-2.054-3.023-5.649-14.625-7.864-21.971-4.194m-40.58 3.134c-4.326 2.638-6.42 7.65-6.42 15.367 0 5.042.496 7.193 2.27 9.849 6.233 9.331 18.248 8.577 22.792-1.43 5.348-11.78-.818-25.678-11.389-25.668-2.317.002-5.543.839-7.253 1.882M14.458 166.68c-2.177 4.775-4.108 9.05-4.291 9.5-.184.451 3.529.82 8.25.82 4.72 0 8.583-.387 8.583-.86 0-.992-7.831-18.14-8.284-18.14-.165 0-2.082 3.906-4.258 8.68m177.806-.693-2.167 1.755 2.201 1.948c2.185 1.932 2.219 1.931 4.336-.121l2.133-2.069-2.168-1.634c-2.013-1.518-2.322-1.509-4.335.121m-50.678 32.522c-1.918 2.928-.66 3.335 1.824.59.976-1.078 1.307-2.156.765-2.491-.526-.325-1.691.53-2.589 1.901m-55.554-.381c-.018.895.643 2.187 1.468 2.872 1.923 1.596 1.943-.032.032-2.559-1.234-1.631-1.473-1.681-1.5-.313m90.023 4.228c-.518 1.361-1.754 2.686-2.748 2.944-1.72.446-1.719.474.026.584 1.009.064 1.644.679 1.413 1.366s-1.558 1.113-2.949.946c-3.534-.425-8.018 4.94-7.6 9.093.374 3.714 3.031 5.674 5.555 4.098 1.249-.78 2.247-.79 3.445-.035 1.28.808 2.147.647 3.601-.669 1.708-1.546 2.052-1.568 3.181-.208 1.495 1.801 4.336 1.962 7.238.409 1.738-.93 1.987-.859 1.493.429-.326.85-.894 3.152-1.263 5.116-.969 5.168 1.27 4.582 2.594-.679 1.055-4.187 1.135-4.25 5.434-4.25 3.242 0 5.027-.623 6.944-2.424 1.42-1.334 2.581-2.862 2.581-3.396 0-.535-1.104.219-2.452 1.674-3.247 3.503-3.735 3.337-2.049-.696 2.56-6.128.041-9.443-5.951-7.833-2.256.606-3.16 1.604-3.835 4.234-1.198 4.668-3.574 7.1-6.584 6.738-3.558-.427-3.613-2.095-.118-3.642 3.816-1.689 5.593-4.722 3.936-6.719-.656-.79-1.751-1.436-2.435-1.436-2.546 0-6.452 4.162-7.088 7.554-.673 3.589-1.791 4.955-3.293 4.027-1.5-.927 2.046-13.579 3.811-13.596 1.289-.013 1.317-.168.162-.899-.767-.486-1.125-1.59-.793-2.453s.17-1.835-.357-2.161-1.381.522-1.899 1.884m39.266-1.097c-2.524 1.139-4.827 5.98-3.942 8.286.836 2.18 2.551.902 1.937-1.444-.645-2.468 1.324-6.101 3.307-6.101 1.289 0 1.413.723.733 4.25-1.291 6.695-1.067 15.25.4 15.25 1.608 0 8.758-10.499 10.271-15.082 1.224-3.71.664-6.963-1.02-5.922-.554.342-1.011 2.058-1.016 3.813s-1.346 5.521-2.98 8.369c-3.626 6.323-5.574 7.875-4.67 3.721.347-1.595.921-5.641 1.275-8.992.706-6.678-.212-7.991-4.295-6.148M1.446 203.442c-1.68 2.564-1.652 7.417.038 6.558.541-.275.853-1.27.693-2.211-.4-2.364 1.587-5.789 3.358-5.789.806 0 1.457.338 1.448.75-.055 2.389-4.002 15.568-5.036 16.814-.678.816-.906 1.81-.508 2.209 1.22 1.219 3.16-2.404 4.505-8.412 1.445-6.458 2.149-5.963 4.104 2.889.699 3.162 1.581 5.75 1.962 5.75.38 0 1.476-3.332 2.435-7.405s2.385-8.64 3.167-10.149c.783-1.509 1.221-2.947.972-3.195-1.148-1.149-2.502 1.268-4.177 7.455l-1.822 6.729-1.542-5.969c-.849-3.283-1.907-6.531-2.352-7.218-1.376-2.124-5.518-1.441-7.245 1.194m22.525.089c-2.337 2.488-1.511 3.544.954 1.219 1.06-1 1.417-1 1.783 0 .761 2.074 2.145 1.402 1.578-.766-.8-3.058-1.772-3.161-4.315-.453m58.684-.702c-2.266 2.504-2.096 3.88.221 1.783 1.758-1.591 1.918-1.592 2.524-.012.911 2.373 1.924.998 1.124-1.525-.811-2.554-1.727-2.613-3.869-.246m158.395.618c-2.311 2.459-1.653 3.756.708 1.395.876-.876 1.531-.847 2.7.123 1.866 1.549 2.034.089.266-2.327-1.188-1.626-1.439-1.57-3.674.809M137 203.34c0 3.538 5.686 3.195 6.837-.411.297-.932-.322-.738-1.781.558-2.205 1.959-2.256 1.96-3.646.059-1.255-1.716-1.41-1.739-1.41-.206m-67.02 2.91c-.668 1.787-1.368 4.375-1.554 5.75s-.583 3.477-.882 4.671c-1.184 4.739 2.006 6.952 5.484 3.804 1.51-1.367 1.817-1.367 2.951 0 1.454 1.751 4.596 2.021 5.551.476.435-.704 1.045-.719 1.855-.046.665.551 2.514.863 4.111.692 2.43-.259 3.155-1.027 4.453-4.724 1.995-5.681 2.817-6.873 4.738-6.873 1.261 0 1.442.735.92 3.75-1.117 6.46-1.127 6.738-.265 7.25.463.275 1.588-1.712 2.5-4.415 2.773-8.222 7.458-9.298 5.188-1.193-1.304 4.658-.864 6.608 1.49 6.608 1.858 0 5.491-3.966 5.44-5.939-.024-.921-.652-.433-1.532 1.189-2.397 4.418-3.514 3.33-2.801-2.729.717-6.103-.597-7.678-4.613-5.529-1.621.868-2.488.859-3.565-.034-.82-.681-2.17-.857-3.186-.416-.97.421-2.497.677-3.394.569-1.041-.125-1.867.813-2.284 2.596-1.211 5.173-2.819 8.293-4.274 8.293-.906 0-1.254-.653-.932-1.75 1.618-5.507 1.828-9.388.496-9.165-.756.127-2.185-.122-3.176-.554-2.328-1.013-6.452 2.737-7.513 6.832-.781 3.015-3.555 5.602-4.737 4.419-.356-.356-.333-2.509.051-4.784.491-2.902 1.341-4.395 2.85-5.004 1.825-.736 1.874-.877.321-.931-1.506-.052-1.713-.594-1.171-3.063.89-4.051-.981-3.866-2.52.25M249.5 206c-.362 1.65-.961 3.001-1.329 3.003-.369.002-.704 1.566-.745 3.477-.093 4.368-2.974 7.716-6.297 7.317-3.607-.433-3.546-2.068.146-3.881 3.647-1.791 5.065-6.465 2.284-7.532-2.2-.844-6.462 2.193-7.603 5.418-1.392 3.932-2.429 5.522-3.929 6.022-1.337.446-1.231-1.177.533-8.207.476-1.896.268-2.617-.754-2.617-1.494 0-3.963 9.426-3.075 11.741.658 1.715 3.75 1.589 5.246-.213 1.076-1.296 1.398-1.296 2.694 0 1.886 1.886 5.301 1.88 8.005-.014 1.876-1.314 2.187-1.314 2.691 0 .314.817 1.28 1.486 2.147 1.486 1.916 0 6.498-4.405 6.454-6.205-.017-.712-.955-.057-2.083 1.455-2.121 2.843-4.889 3.694-4.879 1.5.016-3.64 2.227-8.751 3.791-8.765 1.365-.013 1.428-.19.316-.894-.851-.539-1.194-1.885-.889-3.485.717-3.749-1.897-3.372-2.724.394m-18.308-.925c.197.591.786 1.075 1.308 1.075s1.111-.484 1.308-1.075S233.417 204 232.5 204s-1.505.484-1.308 1.075M20.656 209.12c-2.84 1.67-4.835 7.28-3.674 10.332 1.04 2.736 3.812 3.354 5.86 1.306.988-.988 1.406-.975 2.05.068.591.956 1.712 1.075 4.158.441 2.695-.698 3.522-1.542 4.235-4.317 1.021-3.976 3.372-6.95 5.495-6.95 1.477 0 1.423 1.36-.338 8.374-.791 3.153 1.754 4.609 4.769 2.726 1.462-.912 2.287-.931 3.319-.075.756.627 2.296.848 3.422.49 3.075-.976 2.451.748-.976 2.698-3.402 1.937-4.742 4.421-3.209 5.954 1.809 1.809 5.202-.185 7.295-4.288 1.116-2.187 2.7-4.234 3.52-4.549.821-.315 2.196-1.98 3.057-3.701l1.565-3.129-3.061 3.5c-3.491 3.991-3.92 2.9-1.726-4.39 1.295-4.303 1.273-4.69-.25-4.505-.917.111-2.525-.167-3.573-.618-1.466-.631-2.564-.085-4.75 2.362-1.564 1.75-2.844 4.02-2.844 5.044 0 2.046-2.672 4.769-3.684 3.756-.35-.35-.086-2.472.586-4.715 1.456-4.859.096-7.488-3.332-6.441-1.139.348-2.923.717-3.966.82-1.337.132-2.299 1.572-3.266 4.888-2.284 7.839-5.39 8.034-3.421.216.645-2.563 1.04-4.778.878-4.922-1.14-1.011-6.628-1.264-8.139-.375m101.585 2.393c-1.243 1.918-2.705 3.487-3.25 3.487-1.394 0-1.237 4.354.209 5.8 1.626 1.626 5.299 1.51 8.752-.275 2.515-1.301 2.92-1.301 3.419 0 .692 1.802 3.751 1.926 5.554.225 1.06-1 1.417-1 1.783 0 .618 1.684 2.821 1.579 4.621-.222 1.296-1.296 1.618-1.296 2.694 0 1.984 2.39 5.881 1.722 9.176-1.573 1.674-1.675 2.771-3.318 2.437-3.653s-1.547.586-2.695 2.045c-4.196 5.335-9.67 2.033-6.746-4.069 1.545-3.223 4.805-4.344 4.805-1.651 0 1.385.264 1.509 1.207.566s.828-1.587-.526-2.941c-1.576-1.575-1.979-1.595-4.434-.217-1.689.948-3.272 3.16-4.227 5.908-2.077 5.974-4.561 6.839-3.671 1.277.356-2.225.897-4.698 1.204-5.497.729-1.901-4.953-3.115-7.701-1.644-1.091.584-2.924 3.168-4.073 5.741l-2.09 4.68-1.1-5.419c-.606-2.98-1.548-5.561-2.095-5.736s-2.011 1.251-3.253 3.168m62.15-1.721c-1.431.928-3.69 5.243-3.069 5.863.723.723 4.558-1.899 5.191-3.551.689-1.793-.658-3.262-2.122-2.312m55.669 1.374c-2.097 2.25-2.746 4.834-1.215 4.834.858 0 3.303-2.532 4.519-4.681 1.269-2.241-1.25-2.357-3.304-.153m-219.037.306c-1.994 2.403-1.831 7.892.246 8.319 1.254.257 2.218-.712 3.312-3.331.849-2.031 1.305-4.316 1.013-5.077-.695-1.811-3.032-1.765-4.571.089m28.012.462c-1.568 2.93-1.308 8.066.408 8.066 2.059 0 4.557-3.959 4.557-7.223 0-2.094-.483-2.777-1.965-2.777-1.08 0-2.43.87-3 1.934m30 0c-1.568 2.93-1.308 8.066.408 8.066 2.059 0 4.557-3.959 4.557-7.223 0-2.094-.483-2.777-1.965-2.777-1.08 0-2.43.87-3 1.934m55.411.508c-2.13 3.251-1.564 7.058 1.05 7.058 1.429 0 2.352-1.09 3.253-3.84.692-2.112 1.005-4.249.696-4.75-1.028-1.662-3.378-.942-4.999 1.532m33.795-.456c-1.744 2.792-1.612 8.014.202 8.014 2.059 0 4.557-3.959 4.557-7.223 0-3.356-2.86-3.832-4.759-.791m25.965-.296c-2.033 3.961-2.309 7.333-.653 7.969 2.305.884 4.599-1.871 4.786-5.747.184-3.819-2.557-5.293-4.133-2.222M122.854 213c-2.571 3.905-3.124 6.683-1.457 7.322 2.253.865 3.764-1.79 3.418-6.002l-.315-3.82zM48.75 225.43c-1.834 1.353-2.376 3.57-.872 3.57 1.268 0 3.372-2.763 2.967-3.896-.199-.556-1.087-.417-2.095.326m133.25.07c0 .825.45 1.5 1 1.5s1-.675 1-1.5-.45-1.5-1-1.5-1 .675-1 1.5m57 0c0 .825.45 1.5 1 1.5s1-.675 1-1.5-.45-1.5-1-1.5-1 .675-1 1.5"/><path fill="#1976D2" fill-opacity=".126" fill-rule="evenodd" d="M125.655 25.829c-2.058 2.274-2.088 3.567-.121 5.199 1.328 1.102.409 2.425-6.863 9.872-4.618 4.73-9.847 11.179-11.619 14.332l-3.222 5.731-2.866-1.481c-4.775-2.47-15.026-4.452-23.106-4.467-7.431-.015-7.659.058-8.304 2.626-.365 1.453-.579 7.184-.475 12.736l.187 10.096-3.574-.308c-3.413-.294-3.611-.135-4.383 3.513-.445 2.102-.795 7.437-.778 11.856.028 7.064.4 8.693 3.084 13.5 1.969 3.525 4.716 6.597 7.734 8.651l4.681 3.184-3.015 1.781c-3.206 1.894-4.002 5.034-1.517 5.988.824.316 5.212-1.264 9.75-3.511 26.445-13.092 66.078-13.063 93.969.069 7.249 3.413 8.975 3.89 10.25 2.832 2.295-1.905 1.901-2.878-2.131-5.257-3.298-1.946-3.482-2.267-1.845-3.216 4.131-2.397 8.756-7.117 10.741-10.96 2.561-4.961 3.547-18.019 1.839-24.345-.948-3.511-1.568-4.25-3.565-4.25-2.405 0-2.416-.047-2.426-10.827-.014-15.31.613-14.551-11.489-13.907-7.299.388-12.017 1.242-17.054 3.089-3.83 1.403-7.024 2.46-7.097 2.348s-1.44-2.647-3.037-5.633-6.598-9.282-11.115-13.989c-5.258-5.479-7.866-8.903-7.25-9.519 1.631-1.631 1.064-5.437-.972-6.527-2.506-1.341-2.474-1.347-4.411.794m-3.774 30.584c-3.091 2.426-6.63 5.83-7.864 7.563l-2.245 3.153 2.001 2.185c2.51 2.742 5.686 9.035 7.034 13.936 1.305 4.745.775 4.779-1.448.095-.953-2.01-3.486-5.497-5.628-7.749-3.674-3.861-3.971-3.988-5.253-2.234-.748 1.022-1.836 4.081-2.419 6.797-1.677 7.819-1.329 13.641 1.364 22.841 1.51 5.159-3.369-3.904-5.526-10.265-1.755-5.174-2.038-7.879-1.663-15.891l.453-9.657-2.969-.593c-4.448-.89-15.023-.687-16.612.319-.908.575-1.561 3.5-1.875 8.394l-.482 7.512 3.005 1.554c5.399 2.792 9.489 6.953 11.879 12.086 3.256 6.992 2.955 8.86-.54 3.349-2.544-4.012-10.787-10.447-11.925-9.309-1.98 1.979 4.692 11.331 11.577 16.226 5.489 3.902 5.101 4.066-2.092.885-6.805-3.009-12.664-8.262-15.755-14.123-3.159-5.992-5.769-5.817-7.669.513-2.565 8.544.969 20.463 7.297 24.609 2.29 1.501 2.862 1.418 9.704-1.395 7.744-3.184 17.409-5.767 24.77-6.618 2.475-.287 6.684-.797 9.352-1.135l4.853-.614-2.045-2.177c-2.344-2.495-7.482-13.238-6.989-14.615.181-.505 2.257.4 4.614 2.013S123.451 97 123.917 97s1.349-1.998 1.964-4.441 1.551-4.708 2.08-5.035 1.686 1.895 2.571 4.938l1.608 5.533 3.18-2.372c1.749-1.305 4.175-2.885 5.391-3.512 2.2-1.134 2.203-1.12.812 2.825-1.982 5.615-3.409 8.179-6.251 11.229l-2.483 2.665 5.855.633c11.421 1.234 24.962 4.307 32.766 7.434l7.91 3.171 2.966-2.784c4.093-3.841 6.666-9.866 6.692-15.668.023-5.148-1.777-12.616-3.041-12.616-.411 0-1.89 1.95-3.287 4.334-4.196 7.159-12.703 13.81-20.65 16.143-1.581.465-.738-.452 2.292-2.494 2.636-1.775 5.846-4.635 7.132-6.355 2.919-3.902 5.874-9.663 5.268-10.27-2.132-2.131-13.471 6.281-15.691 11.64-1.99 4.804-2.389 2.686-.542-2.876 2.011-6.054 7.451-11.919 13.842-14.924 3.121-1.466 4.699-2.833 4.699-4.067 0-4.033-2.092-12.571-3.262-13.314-1.755-1.115-12.562-.994-16.818.189l-3.579.994 1.015 5.603c1.285 7.087-.349 17.392-3.97 25.047-2.855 6.034-3.904 6.607-2.349 1.284 2.063-7.061.997-22.289-1.87-26.723-1.003-1.551-7.543 4.773-10.317 9.977-.971 1.821-1.785 2.754-1.808 2.073-.081-2.386 3.834-11.41 6.422-14.802l2.61-3.423-4.287-4.676c-4.014-4.378-11.341-10.361-12.687-10.359-.33 0-3.129 1.985-6.219 4.412M20.259 149.25a7753 7753 0 0 1-9.615 20C5.94 179.012 2.512 187 3.026 187s1.852-1.8 2.974-4l2.041-4h20.918L31 183c1.788 3.505 2.47 4 5.508 4h3.467l-2.329-5.25C32.927 171.112 21.751 147 21.539 147c-.12 0-.696 1.012-1.28 2.25m123.241.646c-10.093 4.673-14.304 16.335-9.62 26.645 5.471 12.045 22.398 15.3 32.668 6.282 2.714-2.382 3.245-3.368 2.377-4.414-.906-1.091-1.72-.709-4.283 2.009-8.218 8.714-22.381 5.388-25.542-5.997-4.097-14.755 6.06-27.386 18.923-23.532 2.106.631 4.957 2.487 6.335 4.124 1.646 1.957 3.061 2.764 4.127 2.354 1.415-.543 1.328-.944-.681-3.127-5.484-5.96-16.544-7.937-24.304-4.344m47-1.405c-.55.184-2.203.598-3.673.921-6.718 1.476-12.783 10.295-12.783 18.588 0 4.949 2.6 11.547 5.601 14.212 4.922 4.371 16.413 6.228 23.04 3.724 11.915-4.501 15.688-20.962 7.173-31.293-3.826-4.64-14.1-7.906-19.358-6.152m38.5 1.09c-4.565 1.959-6.95 5.12-6.978 9.246-.032 4.803 3.949 8.248 13.984 12.101 9.236 3.546 11.994 5.421 11.994 8.156 0 7.069-15.45 8.691-22.1 2.32-3.157-3.025-4.698-2.764-2.951.5 2.412 4.508 10.958 6.738 19.115 4.989 6.786-1.455 10.936-5.299 10.936-10.129 0-4.742-3.799-7.973-13.305-11.317-12.315-4.332-15.256-7.755-10.445-12.158 4.672-4.276 11.414-4.125 16.763.375 3.356 2.825 4.747 2.624 3.103-.448-2.532-4.731-13.11-6.643-20.116-3.635M44 168c0 23.225 1.816 26.287 2.224 3.75l.276-15.25 2.147 4c1.181 2.2 4.503 6.925 7.384 10.5s5.999 8.174 6.93 10.22l1.692 3.72 7.794-13.444c11.405-19.672 10.484-19.607 10.521-.746L83 187h7v-38h-3.398c-3.3 0-3.62.378-11.091 13.109-4.288 7.308-8.072 12.729-8.551 12.25-3.268-3.268-13.269-17.62-14.707-21.105-1.553-3.763-2.123-4.247-5.003-4.25L44 149zm57.54-8.344 7.46 10.655V187h6v-8.365c0-6.534.397-8.887 1.813-10.75 7.07-9.3 13.129-18.885 11.937-18.885-.763 0-4.013 3.825-7.221 8.5s-6.212 8.5-6.675 8.5c-.462 0-3.386-3.825-6.498-8.5-5.641-8.477-5.668-8.5-9.966-8.5h-4.31zm88.793-8.569c-8.813 2.58-12.975 16.97-7.801 26.974 4.988 9.646 18.764 8.924 24.063-1.261 1.919-3.689 1.795-14.176-.218-18.419-2.903-6.116-9.626-9.173-16.044-7.294m-176.32 15.887c-2.419 4.935-4.144 9.229-3.832 9.541.312.311 4.426.436 9.143.276l8.576-.291-4.2-9.245c-2.31-5.085-4.445-9.248-4.744-9.25-.3-.003-2.524 4.033-4.943 8.969m178.494-.982c-1.796 1.985-1.794 2.078.074 3.448 1.666 1.222 2.153 1.196 3.693-.193 1.236-1.115 1.427-1.813.632-2.305-.628-.388-1.46-1.22-1.848-1.848-.483-.782-1.287-.499-2.551.898M86 197.642c0 .537.7 1.849 1.555 2.917 1.467 1.83 1.487 1.798.365-.559-1.458-3.061-1.92-3.628-1.92-2.358m55.507 1.347c-.35.566.051.734.941.393 1.732-.665 2.049-1.382.611-1.382-.518 0-1.216.445-1.552.989M6.64 202.733c.569 2.173-3.05 15.851-4.728 17.873-.686.827-.75 1.394-.156 1.394 1.183 0 2.739-3.68 4.327-10.238.632-2.605 1.482-4.531 1.89-4.279S9.293 210.668 10 214c1.171 5.52 2.98 9.007 3.014 5.809.007-.72.303-2.392.657-3.715.443-1.656.292-2.189-.484-1.709-.698.431-1.364-.369-1.745-2.094-1.305-5.905-3.112-10.681-4.176-11.036-.647-.215-.907.4-.626 1.478m9.338 1.834c-1.619 4.904-.842 5.132 1.2.352.92-2.156 1.292-3.919.825-3.919-.466 0-1.378 1.605-2.025 3.567m197.597-1.649c-1.006 1.11-1.549 2.898-1.292 4.25l.445 2.332.136-2.421c.075-1.332.881-3.244 1.791-4.25s1.43-1.829 1.155-1.829-1.281.863-2.235 1.918m4.035-.491c.337.877.062 4.51-.61 8.073s-.906 7.72-.519 9.239l.704 2.761 2.982-3.5c4.699-5.514 10.028-17 7.888-17-.443 0-1.097 1.458-1.453 3.239-.736 3.683-6.553 13.761-7.942 13.761-.542 0-.59-2.149-.116-5.25 1.201-7.871 1.103-12.013-.295-12.49-.798-.273-1.029.149-.639 1.167m-193.71 1.29c-1.287 1.64-1.253 1.667.426.347 1.587-1.247 1.957-1.247 2.826 0s.949 1.247.612-.001c-.59-2.183-2.302-2.336-3.864-.346m58.505.533c-1.903 2.248-1.903 2.249.176.498 1.145-.964 2.382-1.451 2.75-1.084.368.368.669.144.669-.497 0-1.83-1.515-1.374-3.595 1.083m92.979 1.75c-.651 4.074-1.242 4.699-2.934 3.104-1.718-1.619-5.501.774-7.039 4.454-2.398 5.739.2 9.791 4.725 7.369 1.395-.746 2.372-.75 3.26-.013.903.749 1.813.654 3.16-.331 1.611-1.179 2.187-1.176 3.89.017 2.559 1.792 3.719 1.763 6.113-.155 1.876-1.503 1.868-1.52-.237-.504-2.428 1.173-5.343.457-5.283-1.298.021-.629 1.483-2.05 3.25-3.159 3.508-2.202 4.736-5.877 2.279-6.82-1.305-.5-1.351-.281-.303 1.438 1.063 1.746.906 2.298-1.126 3.963-4.099 3.359-5.701 1.61-2.592-2.829 1.242-1.773 1.27-2.103.141-1.67-1.374.527-2.3 2.094-4.542 7.684-1.103 2.75-4.157 3.858-4.134 1.5.028-2.981 3.006-12.145 4.19-12.896.954-.605.975-.827.079-.839-.67-.008-.959-.69-.643-1.515.317-.825.083-1.5-.519-1.5-.603 0-1.383 1.8-1.735 4m66.021-2.845c-.456.737-.273.882.507.399.716-.442 1.793.011 2.605 1.096 1.301 1.74 1.35 1.716.817-.4-.606-2.402-2.752-3-3.929-1.095m-240.43 2.41C-.222 208.713-.229 209 .887 209c.487 0 1.084-1.35 1.326-3 .54-3.677.059-3.846-1.238-.435M70.5 206c-.362 1.65-.961 3.003-1.329 3.006-1.161.011-1.311 11.789-.16 12.501.592.366 2.195-.067 3.562-.963 2.24-1.467 2.638-1.476 4.028-.086 1.74 1.74 3.023 1.96 3.829.656.301-.488-.409-1.137-1.578-1.442-1.807-.473-2.03-1.051-1.486-3.864.661-3.415 4.158-7.22 5.738-6.244 1.196.739 1.143 6.107-.083 8.397-1.326 2.477 1.085 4.588 3.665 3.207.998-.534 2.219-.903 2.713-.819.495.083 1.523-1.648 2.284-3.847 1.665-4.809 3.638-6.976 5.649-6.205 1.183.454 1.306 1.352.601 4.387-1.108 4.776-1.122 5.316-.14 5.316 1.089 0 3.142-8.005 2.49-9.705-.362-.942-1.783-1.257-4.524-1.001-3.802.354-4.077.613-5.628 5.285-1.08 3.253-2.272 5.034-3.526 5.269-1.985.371-1.985-.501-.004-8.396.564-2.247.405-2.668-.829-2.195-.841.323-1.985.13-2.543-.428-1.751-1.751-5.23 1.007-7.268 5.763-3.225 7.523-7.724 7.253-5.795-.348.711-2.8 1.631-4.249 2.706-4.259 1.32-.013 1.366-.181.243-.893-.917-.581-1.164-1.759-.731-3.485.36-1.434.231-2.607-.285-2.607-.517 0-1.237 1.35-1.599 3m66.757-2c.225.825 1.271 1.605 2.326 1.732 1.347.164 1.471.045.417-.4-.825-.347-1.872-1.127-2.326-1.732-.531-.707-.68-.565-.417.4m113.212.5a73 73 0 0 1-1.128 3.25c-.362.963-.584 2.096-.494 2.518.394 1.835-2.887 7.712-5.123 9.177-2.527 1.656-5.753 1.201-5.685-.802.021-.629 1.483-2.05 3.25-3.159 3.62-2.272 4.733-5.878 2.122-6.88-1.392-.534-1.478-.39-.483.809 1.442 1.738.061 4.994-2.543 5.993-2.59.994-3.008-.255-1.163-3.471.927-1.614 1.266-2.935.755-2.935-1.252 0-3.593 3.868-4.369 7.219-.513 2.21-.136 3.044 2.005 4.447 2.482 1.626 2.809 1.628 5.587.034 2.581-1.481 3.132-1.511 4.404-.239.841.841 2.18 1.168 3.175.776 1.617-.637 1.615-.699-.029-1.031-1.91-.385-2.078-1.318-1.108-6.166.387-1.936 1.478-3.548 2.75-4.061 1.673-.676 1.752-.865.383-.916-1.376-.05-1.604-.67-1.125-3.063.61-3.05-.326-4.239-1.181-1.5M232 205c0 .55.45 1 1 1s1-.45 1-1-.45-1-1-1-1 .45-1 1m-212.077 5.923C15.047 215.799 16.703 223.835 22 221c1.404-.752 2.531-.805 3.314-.158.652.539 2.387.75 3.854.468 2.145-.411 2.978-1.459 4.25-5.349 1.808-5.529 1.95-6.961.69-6.961-.49 0-1.18 1.238-1.534 2.75-1.183 5.062-2.804 8.25-4.195 8.25-1.607 0-1.779-3.12-.43-7.823.698-2.434.64-3.207-.22-2.92-.644.215-1.53 2.122-1.97 4.238-.962 4.632-2.368 6.505-4.881 6.505-2.204 0-2.537-3.459-.717-7.453 1.076-2.362 2.084-3.002 4.163-2.641.454.079.54-.318.191-.881-.929-1.504-1.373-1.321-4.592 1.898m30.379-1.87c-2.826 1.085-5.631 6.5-4.892 9.444.618 2.463 3.106 3.92 4.851 2.842.638-.395.141-1.016-1.212-1.517-1.952-.722-2.201-1.33-1.668-4.085.666-3.447 4.171-7.132 5.817-6.115 1.639 1.014-.334 12.59-2.255 13.23-.593.198-2.285 1.409-3.76 2.691-2.528 2.197-2.585 2.431-.983 4.058 1.439 1.462 1.947 1.522 3.316.386.889-.738 2.317-2.697 3.174-4.354s2.299-3.715 3.205-4.573 1.21-1.222.676-.81c-2.096 1.619-2.334.54-.992-4.5 1.744-6.552 1.748-7.089.043-6.435-.758.291-1.771.161-2.25-.289s-1.861-.437-3.07.027m85.006.142c-1.206.582-2.855 2.715-3.665 4.739s-2.141 4.234-2.958 4.912c-1.264 1.05-1.485.723-1.485-2.204 0-4.112-1.01-7.642-2.187-7.642-.468 0-.398 1.645.157 3.655 1.619 5.863-1.556 10.559-4.887 7.228-.823-.823-.59-2.074.883-4.75l2.001-3.633-2.689 2.629c-5.091 4.975-.106 9.827 6.64 6.462 2.932-1.463 3.364-1.464 4.964-.017 1.401 1.268 2.181 1.355 3.899.436 1.634-.874 2.494-.86 3.602.059 1.158.961 1.849.85 3.392-.546 1.783-1.614 2.066-1.625 3.553-.138.888.888 2.358 1.615 3.266 1.615 1.29 0 1.165-.34-.571-1.557-3.348-2.344-2.531-7.776 1.69-11.248 1.352-1.112 1.262-1.148-.612-.242-2.641 1.276-5.301 4.863-5.301 7.147 0 1.918-2.731 4.503-3.716 3.517-.368-.368-.207-2.919.356-5.67.715-3.489.706-4.896-.028-4.651-.579.193-1.413 2.083-1.853 4.199-.962 4.632-2.368 6.505-4.881 6.505-1.459 0-1.878-.739-1.878-3.311 0-3.602 3.387-8.186 5.214-7.057.657.406.81.215.381-.477-.392-.635-.799-1.125-.904-1.087-.105.037-1.178.544-2.383 1.127m60.729-.218c-.746.461-1.916.623-2.601.36-.771-.296-1.517.788-1.957 2.842-.39 1.827-1.172 3.894-1.737 4.595s-.786 1.516-.491 1.81-.074 2.851-.821 5.68c-1.214 4.604-1.213 6.853.002 5.637.238-.238 1.398-4.25 2.578-8.917 2.053-8.121 4.933-12.756 7.094-11.42 2.647 1.636-.275 10.436-3.465 10.436-1.323 0-1.697.342-1.065.974 1.502 1.502 5.886-.231 6.257-2.474.183-1.1.565-3.423.849-5.162.397-2.423.074-3.399-1.385-4.18-1.07-.573-2.496-.652-3.258-.181m-157.683.732c1.622.418 1.771 1.139 1.19 5.788-.684 5.472.488 7.871 2.743 5.616.817-.817.775-1.113-.159-1.113-.958 0-1.103-1.356-.585-5.5l.687-5.5-2.865.116c-1.883.076-2.23.28-1.011.593m65.896-.02c1.963.513 2.179 2.329.835 7.015-1.281 4.467.753 6.11 4.036 3.262 2.171-1.884 2.186-1.954.174-.803-2.922 1.672-3.462.908-2.278-3.223 1.637-5.709 1.315-6.954-1.767-6.824-1.692.071-2.077.292-1 .573m48.829.894c.048 1.165.285 1.402.604.605.289-.722.253-1.585-.079-1.917s-.568.258-.525 1.312m16.802-.55c-2.107 1.197-4.279 6.486-3.499 8.519 1.175 3.063 5.009 1.276 6.401-2.983 1.486-4.549.08-7.23-2.902-5.536m60.172 2.717c-1.839 6.621-.917 10.52 2.054 8.684.776-.48.713-.927-.21-1.498-1.036-.64-1.096-1.893-.28-5.875 1.199-5.855-.019-6.876-1.564-1.311m-215.974-1.167c.048 1.165.285 1.402.604.605.289-.722.253-1.585-.079-1.917s-.568.258-.525 1.312m187.793 7.167c-1.243 1.586-1.208 1.621.378.378 1.666-1.307 2.195-2.128 1.372-2.128-.207 0-.995.787-1.75 1.75m-48.313.782c-1.068.807-1.46 1.468-.873 1.468.588 0 1.629-.675 2.314-1.5 1.557-1.876 1.067-1.866-1.441.032m-105.698 6.397c-1.851 1.512-2.1 2.195-1.153 3.158 1.473 1.499 3.795-.079 4.59-3.12.65-2.485-.428-2.497-3.437-.038M182 226c0 .55.45 1 1 1s1-.45 1-1-.45-1-1-1-1 .45-1 1m57 0c0 .55.45 1 1 1s1-.45 1-1-.45-1-1-1-1 .45-1 1"/></svg>